<svg id="Layer_1" data-name="Layer 1" xmlns="http://www.w3.org/2000/svg" viewBox="0 0 700 700"><defs><style>.cls-1{fill:#333;}</style></defs><title>change</title><path class="cls-1" d="M231.31,557.4c-10.06-10.06-28.94-5.82-31.57,12.72a12.6,12.6,0,0,0,3.7,10.62l22.75,22.75H143.05a98,98,0,0,1-97.9-97.9V441.85a12.69,12.69,0,0,0-4.67-10C25.7,420.12,9,430.65,9,444.89V547a92.62,92.62,0,0,0,92.62,92.62H226.19l-22.25,22.24a12.84,12.84,0,0,0-3.81,8.82c-.21,13.14,9.08,20.3,18.38,20.3a18.4,18.4,0,0,0,12.8-5.27l55.32-55.32a12.52,12.52,0,0,0,0-17.69Z"/><path class="cls-1" d="M325.3,10.06H28.58A18.13,18.13,0,0,0,10.51,28.14V324.85a18.13,18.13,0,0,0,18.07,18.08H325.29a18.13,18.13,0,0,0,18.08-18.08V28.13A18,18,0,0,0,325.3,10.06ZM307.22,306.78H46.65V46.21H307.22Z"/><path class="cls-1" d="M593.34,61.27H470.94l22.62-22.61a13.28,13.28,0,0,0,3.7-11.61c-3.08-17.82-21.53-21.77-31.44-11.87L414.61,66.54a18.09,18.09,0,0,0,0,25.61L466,143.51a18.14,18.14,0,0,0,12.8,5.27,18.4,18.4,0,0,0,12.8-5.27,18.09,18.09,0,0,0,0-25.61L471.09,97.42h83.14a98,98,0,0,1,97.9,97.9v63.59a12.94,12.94,0,0,0,4.79,10.2c14.75,11.63,31.36,1.11,31.36-13.09v-99.8A95,95,0,0,0,593.34,61.27Z"/><path class="cls-1" d="M669.45,654.74a18,18,0,0,0-18.07,18.07,18.56,18.56,0,0,0,5.27,12.81A18.11,18.11,0,0,0,682.26,660,18.84,18.84,0,0,0,669.45,654.74Z"/><path class="cls-1" d="M595.2,654.74a18.08,18.08,0,1,0,18.07,18.07A18.12,18.12,0,0,0,595.2,654.74Z"/><path class="cls-1" d="M446.69,654.74a18.08,18.08,0,1,0,18.08,18.07A18.12,18.12,0,0,0,446.69,654.74Z"/><path class="cls-1" d="M521,654.74A18.08,18.08,0,1,0,539,672.81,18.12,18.12,0,0,0,521,654.74Z"/><path class="cls-1" d="M372.59,654.74a18,18,0,0,0-18.07,18.07,18.52,18.52,0,0,0,5.27,12.81,18.25,18.25,0,0,0,12.8,5.27,18.52,18.52,0,0,0,12.8-5.27,18.19,18.19,0,0,0,0-25.61A18.52,18.52,0,0,0,372.59,654.74Z"/><path class="cls-1" d="M372.59,580.49a18.07,18.07,0,1,0,18.07,18.07A18.12,18.12,0,0,0,372.59,580.49Z"/><path class="cls-1" d="M372.59,506.23a18.08,18.08,0,1,0,18.07,18.08A18.12,18.12,0,0,0,372.59,506.23Z"/><path class="cls-1" d="M372.59,432a18.08,18.08,0,1,0,18.07,18.07A18.12,18.12,0,0,0,372.59,432Z"/><path class="cls-1" d="M372.59,357.87a18.08,18.08,0,1,0,0,36.15,18.52,18.52,0,0,0,12.8-5.27,18.21,18.21,0,0,0,5.27-12.8,18.48,18.48,0,0,0-5.27-12.8A18.1,18.1,0,0,0,372.59,357.87Z"/><path class="cls-1" d="M595.2,357.87A18.08,18.08,0,1,0,613.27,376,18.13,18.13,0,0,0,595.2,357.87Z"/><path class="cls-1" d="M521,357.87A18.08,18.08,0,1,0,539,376,18.13,18.13,0,0,0,521,357.87Z"/><path class="cls-1" d="M446.69,357.87A18.08,18.08,0,1,0,464.77,376,18.13,18.13,0,0,0,446.69,357.87Z"/><path class="cls-1" d="M669.45,357.87A18.11,18.11,0,1,0,687.53,376a18.52,18.52,0,0,0-5.27-12.8A18.8,18.8,0,0,0,669.45,357.87Z"/><path class="cls-1" d="M669.45,432a18.08,18.08,0,1,0,18.08,18.07A18.12,18.12,0,0,0,669.45,432Z"/><path class="cls-1" d="M669.45,580.49a18.07,18.07,0,1,0,18.08,18.07A18.12,18.12,0,0,0,669.45,580.49Z"/><path class="cls-1" d="M669.45,506.23a18.08,18.08,0,1,0,18.08,18.08A18.12,18.12,0,0,0,669.45,506.23Z"/></svg>