<svg id="Layer_1" data-name="Layer 1" xmlns="http://www.w3.org/2000/svg" viewBox="0 0 700 700"><defs><style>.cls-1{fill:#333;}.cls-2{fill:#fff;}</style></defs><title>discuss</title><circle class="cls-1" cx="170.8" cy="412.5" r="87.55"/><path class="cls-1" d="M335,683A164.22,164.22,0,0,0,6.59,683Z"/><circle class="cls-1" cx="529.91" cy="408.31" r="87.55"/><path class="cls-1" d="M694.12,678.81a164.22,164.22,0,0,0-328.43,0Z"/><ellipse class="cls-1" cx="346.32" cy="158.48" rx="271.68" ry="144.48"/><path class="cls-1" d="M376,249.31s7.77,45.45,40.64,58.65,41.74,12.54,41.74,12.54-48.83-28.36-36.42-61.92S376,249.31,376,249.31Z"/><path class="cls-1" d="M311.79,249.31S304,294.76,271.15,308s-41.74,12.54-41.74,12.54,48.83-28.36,36.43-61.92S311.79,249.31,311.79,249.31Z"/><circle class="cls-2" cx="196.61" cy="157.96" r="25.65"/><circle class="cls-2" cx="269.89" cy="157.96" r="25.65"/><circle class="cls-2" cx="343.18" cy="157.96" r="25.65"/><circle class="cls-2" cx="416.46" cy="157.96" r="25.65"/><circle class="cls-2" cx="489.75" cy="157.96" r="25.65"/></svg>