<svg id="Layer_1" data-name="Layer 1" xmlns="http://www.w3.org/2000/svg" viewBox="0 0 700 700"><defs><style>.cls-1{fill:#333;}</style></defs><title>cd-icon-picture</title><path class="cls-1" d="M523.48,128.38a58.12,58.12,0,0,0-17-41.27l-54.84-55A59.34,59.34,0,0,0,410.1,15h-3.33V131.72H523.48v-3.34Z"/><path class="cls-1" d="M374.34,416.43A78.13,78.13,0,0,1,393,386.07L524.78,254.89V170.63H388a18.82,18.82,0,0,1-18.82-18.83V15H77.36A58.36,58.36,0,0,0,19,73.36V620.64A58.36,58.36,0,0,0,77.36,679H466.42a58.36,58.36,0,0,0,58.36-58.36V475.45L503.4,496.31A77.33,77.33,0,0,1,473.15,515l-61.87,20.65-9.42.51a48.63,48.63,0,0,1-46.1-64.07ZM116.27,365.16H309.66c10,0,18.76,7.33,19.84,17.26a19.44,19.44,0,0,1-19.33,21.64H116.77c-10,0-18.76-7.33-19.84-17.26A19.45,19.45,0,0,1,116.27,365.16Zm.5-77.82H309.66c10,0,18.76,7.33,19.84,17.27a19.45,19.45,0,0,1-19.33,21.64H116.27a19.46,19.46,0,0,1-19.34-21.64C98,294.67,106.78,287.34,116.77,287.34Zm0,155.63H309.66c10,0,18.76,7.33,19.84,17.26a19.45,19.45,0,0,1-19.33,21.65H116.27a19.46,19.46,0,0,1-19.34-21.65C98,450.3,106.78,443,116.77,443ZM388,559.69a19.44,19.44,0,0,1,19.33,21.64c-1.08,9.93-9.84,17.26-19.84,17.26H271.76c-10,0-18.75-7.33-19.83-17.26a19.44,19.44,0,0,1,19.33-21.64ZM116.27,248.44A19.46,19.46,0,0,1,96.93,226.8c1.08-9.94,9.85-17.27,19.84-17.27h270.7c10,0,18.76,7.33,19.84,17.27A19.45,19.45,0,0,1,388,248.44Z"/><path class="cls-1" d="M409.5,433.89l-16.92,50.77A9.72,9.72,0,0,0,404.89,497L455.63,480Z"/><path class="cls-1" d="M560.59,273.72,432.47,401.84l55.25,55.25L615.83,329Z"/><path class="cls-1" d="M671.57,217.93c-6.84-6.88-16.91-10.81-27.59-10.81s-20.74,3.93-27.62,10.83l-28.27,28.27,55.25,55.24c15.47-15.48,26.17-26.17,28.27-28.27A39.16,39.16,0,0,0,671.57,217.93Z"/><path class="cls-1" d="M671.61,273.19h0l.11-.11Z"/><path class="cls-1" d="M671.72,273.08l.17-.18Z"/><path class="cls-1" d="M671.89,272.9Z"/></svg>